<svg width="1627" height="2194" viewBox="0 0 1627 2194" fill="none" xmlns="http://www.w3.org/2000/svg">
<path d="M691.332 576.676C691.332 576.676 797.949 476.367 926.192 451.418C1069.75 423.488 1113.24 551.523 1113.24 551.523L1161.55 430.204C1161.55 430.204 1063.07 371.617 947.407 376.667C784.917 383.761 724.161 500.915 724.161 500.915L691.332 576.676ZM1170.06 1069.44C1170.06 1069.44 1205.78 1168.73 1133.63 1338.02C1061.49 1507.3 928.63 1570.87 792.204 1608.73C655.775 1646.58 630.777 1679.44 610.061 1722.3C589.35 1765.16 610.061 1802.3 610.061 1802.3L507.205 1680.16C507.205 1680.16 512.561 1616.94 683.634 1563.01C894.966 1496.39 997.92 1470.87 1071.49 1303.73C1145.06 1136.59 1067.92 1003.01 1067.92 1003.01L1155.78 1027.3L1170.06 1069.44Z" fill="#FAB5F5" stroke="#F23AE5" stroke-width="7.55905"/>
<path d="M210.199 426.719L213.071 365.544L266.189 368.038L268.475 319.46L326.09 322.17L328.717 266.392" stroke="#31EFB8" stroke-width="7.55905"/>
<path d="M1172.78 1069.88C1160.72 1069.88 1165.97 1084.73 1153.29 1084.73C1140.61 1084.73 1144.01 1069.88 1134.74 1069.88M1178.28 1117.56C1164.67 1117.56 1171.16 1102.71 1159.1 1102.71C1147.04 1102.71 1152.29 1117.56 1139.61 1117.56C1126.93 1117.56 1130.34 1102.71 1121.06 1102.71M1178.35 1134.78C1166.29 1134.78 1172.48 1149.63 1158.87 1149.63C1145.27 1149.63 1151.76 1134.78 1139.69 1134.78C1127.63 1134.78 1132.89 1149.63 1120.21 1149.63C1107.53 1149.63 1110.93 1134.78 1101.65 1134.78M1178.82 1168.83C1166.75 1168.83 1172.94 1183.68 1159.33 1183.68C1145.72 1183.68 1152.22 1168.83 1140.16 1168.83C1128.09 1168.83 1133.35 1183.68 1120.67 1183.68C1107.99 1183.68 1111.39 1168.83 1102.11 1168.83M1144.36 1312.78C1132.29 1312.78 1138.48 1327.63 1124.87 1327.63C1111.26 1327.63 1117.76 1312.78 1105.69 1312.78C1093.63 1312.78 1098.89 1327.63 1086.21 1327.63C1073.53 1327.63 1076.93 1312.78 1067.65 1312.78M1125.82 1352.19C1113.76 1352.19 1119.94 1367.03 1106.33 1367.03C1092.73 1367.03 1099.22 1352.19 1087.15 1352.19C1075.09 1352.19 1080.35 1367.03 1067.67 1367.03C1054.99 1367.03 1058.39 1352.19 1049.11 1352.19M1066.64 1382.44C1054.58 1382.44 1059.84 1397.29 1047.16 1397.29C1034.48 1397.29 1037.88 1382.44 1028.6 1382.44M606.607 1592.27C618.667 1592.27 613.41 1607.11 626.09 1607.11C638.771 1607.11 635.369 1592.27 644.648 1592.27M535.264 1711.28C548.871 1711.28 542.378 1696.43 554.442 1696.43C566.502 1696.43 561.245 1711.28 573.925 1711.28C586.606 1711.28 583.204 1696.43 592.483 1696.43M516.257 1661.21C528.318 1661.21 522.134 1676.06 535.741 1676.06C549.347 1676.06 542.854 1661.21 554.918 1661.21C566.978 1661.21 561.721 1676.06 574.402 1676.06C587.082 1676.06 583.68 1661.21 592.959 1661.21M550.587 1627.05C562.647 1627.05 556.464 1641.9 570.07 1641.9C583.676 1641.9 577.183 1627.05 589.247 1627.05C601.308 1627.05 596.051 1641.9 608.731 1641.9C621.411 1641.9 618.01 1627.05 627.288 1627.05M551.048 1726.62C563.108 1726.62 557.851 1741.47 570.531 1741.47C583.212 1741.47 579.81 1726.62 589.089 1726.62M847.212 1536.35C835.151 1536.35 841.334 1551.2 827.728 1551.2C814.122 1551.2 820.615 1536.35 808.551 1536.35C796.49 1536.35 801.748 1551.2 789.067 1551.2C776.387 1551.2 779.789 1536.35 770.51 1536.35M828.673 1575.76C816.612 1575.76 822.796 1590.6 809.189 1590.6C795.583 1590.6 802.073 1575.76 790.012 1575.76C777.952 1575.76 783.209 1590.6 770.529 1590.6C757.848 1590.6 761.25 1575.76 751.971 1575.76M929.212 1504.36C917.152 1504.36 923.335 1519.2 909.729 1519.2C896.122 1519.2 902.616 1504.36 890.551 1504.36C878.491 1504.36 883.748 1519.2 871.068 1519.2C858.388 1519.2 861.789 1504.36 852.51 1504.36" stroke="#F23AE5" stroke-width="3.77953"/>
<path d="M910.67 1543.76C898.613 1543.76 904.796 1558.6 891.186 1558.6C877.58 1558.6 884.073 1543.76 872.013 1543.76C859.952 1543.76 865.21 1558.6 852.529 1558.6C839.845 1558.6 843.251 1543.76 833.972 1543.76" stroke="#F23AE5" stroke-width="3.77953"/>
<path d="M786.982 1835.21C786.982 1835.21 778.991 1760.87 815.755 1723.3C852.518 1685.74 897.068 1676.53 894.671 1637.36C892.271 1598.19 876.076 1593.57 863.305 1564.64C839.997 1511.83 862.236 1471.71 862.236 1471.71C848.747 1472.1 830.257 1456.05 840.167 1547.07C843.244 1599.11 819.856 1646.16 769.376 1661.48C741.317 1669.99 698.287 1653.58 707.641 1617.22C708.443 1613.12 756.133 1663.95 755.052 1562.39C754.538 1513.86 750.63 1469.81 785.175 1441.84C819.716 1413.88 873.435 1449.64 873.435 1449.64C873.435 1449.64 901.97 1408.22 959.49 1422.59C1029.6 1440.09 1003.75 1489.95 1017.7 1513.85C1031.66 1537.76 1042.04 1536.99 1037.13 1566.24C1027.54 1623.39 947.199 1678.8 947.434 1728.88C947.668 1778.96 1048.47 1745.85 1061.91 1796.04C1071.5 1836.01 1067.5 1840.01 1067.5 1840.01L786.982 1835.21Z" fill="#31EFB8"/>
<path d="M937.044 1530.03C946.736 1529.84 954.439 1521.81 954.25 1512.1C954.062 1502.38 946.052 1494.66 936.36 1494.85C926.668 1495.04 918.964 1503.07 919.153 1512.78C919.342 1522.5 927.352 1530.22 937.044 1530.03Z" fill="#31EFB8" stroke="white" stroke-width="7.55905"/>
<path d="M1015.4 1547.05C1014.52 1565.82 998.109 1598.45 956.259 1599.26C914.408 1600.07 902.049 1568 899.006 1549.31" fill="#31EFB8"/>
<path d="M1015.4 1547.05C1014.52 1565.82 998.109 1598.45 956.259 1599.26C914.408 1600.07 902.049 1568 899.006 1549.31" stroke="white" stroke-width="7.55905"/>
<path d="M484.755 743.855H253.429V838.812H419.093V937.806H244.339V1084.28H431.218M1090.85 1826.74V1938.87H713.046V1457.03H576.681V1275.2" stroke="black" stroke-width="7.55905"/>
<path d="M448.358 1245.9C458.963 1229.99 474.369 1209.29 472.35 1198.43C470.328 1187.57 447.852 1140.34 445.833 1140.09C443.811 1139.84 426.641 1144.64 426.641 1144.64C426.641 1144.64 411.738 1180.75 411.738 1186.81C411.738 1192.87 407.951 1242.11 416.032 1245.15C424.112 1248.18 448.358 1245.9 448.358 1245.9V1245.9Z" fill="white"/>
<path d="M381.265 1019.86C378.616 1033.82 407.47 1041.33 416.516 1044.71C393.773 1050.27 340.238 1032.01 338.818 1046.95C337.401 1061.9 363.687 1077.85 380.738 1085.02C397.789 1092.21 423.816 1100.28 419.326 1102.08C414.84 1103.87 375.056 1088.47 371.218 1100.38C367.38 1112.29 391.641 1119.61 409.458 1126.31C455.847 1143.74 446.888 1249.22 446.888 1249.22L518.109 1308.34C518.109 1308.34 576.173 1340.27 631.847 1343.98C687.521 1347.7 722.107 1317.44 722.107 1317.44L782.539 1247.1C782.539 1242.62 734.158 1076.02 633.822 1035.67C567.99 1007 503.73 1035.58 451.267 1027.32C424.672 1022.96 383.911 1005.9 381.261 1019.86L381.265 1019.86Z" fill="#FAB5F5"/>
<path d="M610.23 1143.21C598.57 1147.53 585.611 1141.57 581.284 1129.89C576.958 1118.22 582.903 1105.25 594.563 1100.93C606.222 1096.61 619.182 1102.57 623.508 1114.25C627.835 1125.93 621.89 1138.89 610.23 1143.21Z" stroke="white" stroke-width="7.55859"/>
<path d="M524.354 1200.41C534.193 1222.38 569.065 1253.61 619.413 1234.96C669.761 1216.31 669.492 1172.25 664.375 1148.53" stroke="white" stroke-width="7.55859"/>
<path d="M757.913 1113.73H1022.91V1405.16H757.913V1113.73Z" fill="white" stroke="#31EFB8" stroke-width="7.55905"/>
<path d="M1293.71 281.627C1293.71 281.627 1282.48 291.163 1266.42 294.591C1250.37 298.023 1235.19 295.278 1218.61 310.227C1196.39 326.078 1191.85 334.801 1163.49 338.875C1163.44 338.868 1163.39 338.845 1163.34 338.838C1126.46 341.283 1114.47 330.387 1089.31 346.51C1057.36 368.462 1043.52 405.898 1043.52 405.898C1043.52 405.898 1020.87 395.874 1009.83 416.907C997.606 440.201 1020.66 454.291 1020.66 454.291C1020.66 454.291 1006.61 482.69 1011.92 511.135C1017.23 539.587 1038.89 606.587 1006.68 639.087C974.476 671.591 931.911 657.266 906.762 675.956C881.616 694.646 886.882 725.725 887.713 732.094L1181.44 732.411C1181.44 732.411 1192.26 698.713 1174.14 654.591C1152.32 601.439 1097.41 626.966 1091.24 592.304C1084.89 556.682 1149.64 579.756 1177.11 535.725C1193.95 499.774 1197.61 463.252 1195.09 431.587C1200.59 432.612 1211.97 434.237 1227.08 427.35C1244.66 419.345 1240.24 409.462 1255.61 415.048C1278.6 423.401 1285.17 419.633 1285.17 419.633L1280.93 399.971C1280.93 399.971 1267.09 398.399 1251.5 395.035C1230.07 387.998 1226.23 411.325 1209.22 409.522C1192.21 407.716 1189.84 397.726 1194.29 398.157C1229.9 396.649 1236.23 379.622 1256.41 371.682C1276.9 364.814 1276.1 369.399 1292.16 368.662C1308.23 367.925 1317.6 358.291 1317.6 358.291L1311.39 336.369C1290.45 353.272 1266.81 346.378 1253.94 348.766C1226.06 353.703 1213.18 378.334 1188.88 371.349C1224.45 351.983 1218.33 338.029 1234.26 327.053C1245.12 319.921 1261.26 315.805 1273.85 314.176C1286.43 312.544 1305.44 301.995 1305.44 301.995L1293.71 281.627Z" fill="#31EFB8"/>
<path d="M1104.75 447.314C1113.05 453.359 1124.68 451.524 1130.74 443.215C1136.79 434.905 1134.98 423.268 1126.69 417.223C1118.39 411.177 1106.76 413.013 1100.7 421.322C1094.64 429.632 1096.46 441.269 1104.75 447.314Z" stroke="white" stroke-width="7.55905"/>
<path d="M1159.49 513.652C1148.05 527.379 1116.85 542.69 1084.62 519.227C1052.39 495.763 1061.44 464.325 1069.87 448.398" stroke="white" stroke-width="7.55905"/>
<path d="M792.027 1210.53L835.295 1167.19L872.927 1204.76L907.287 1170.34L948.106 1211.1L987.56 1171.58" stroke="#31EFB8" stroke-width="7.55905"/>
<path d="M805.251 1215.61C805.251 1215.61 801.048 1190.43 777.286 1198.52C753.525 1206.62 738.996 1201.48 729.891 1212.64C720.79 1223.79 722.502 1242.62 739.506 1258.34C756.51 1274.07 795.595 1243.54 796.929 1241.85C798.263 1240.15 805.251 1215.61 805.251 1215.61V1215.61Z" fill="white" stroke="#F23AE5" stroke-width="7.55905"/>
<path d="M973.837 1321.79C973.837 1340.33 958.666 1355.39 939.901 1355.39C921.135 1355.39 905.964 1340.33 905.964 1321.79C905.964 1303.25 921.135 1288.18 939.904 1288.18C958.666 1288.18 973.837 1303.25 973.837 1321.79V1321.79Z" stroke="#31EFB8" stroke-width="7.55905"/>
<path d="M874.895 1307.17L877.214 1261.04L725.183 1252L722.863 1298.13L874.895 1307.17Z" fill="white" stroke="black" stroke-width="7.55905"/>
<path d="M875.69 1285L724.184 1275.37M874.881 1307.16L877.202 1261.03L927.923 1288.18L874.881 1307.16Z" stroke="black" stroke-width="7.55905"/>
<path d="M927.923 1288.18L909.925 1294.46L912.03 1279.85L927.923 1288.18Z" fill="black" stroke="black" stroke-width="7.55905"/>
<path d="M748.154 1226.56L742.209 1248.32L754.965 1249.7L762.278 1273.51L758.778 1292.13L750.108 1306.99C750.108 1306.99 755.157 1350.61 756.507 1351.3C757.86 1351.98 829.202 1338.63 830.899 1338.07C832.6 1337.52 852.242 1320.02 852.242 1320.02L865.138 1278.42C865.138 1278.42 865.969 1251.66 864.072 1248.71C862.167 1245.76 853.675 1230.69 848.716 1228.74C843.757 1226.79 830.763 1227.84 830.763 1227.84C830.763 1227.84 819.613 1222.47 817.134 1221.78C814.655 1221.09 805.281 1220.57 804.397 1217.86C803.509 1215.14 804.397 1217.29 803.048 1216.61C801.695 1215.93 800.772 1219.14 799.416 1219.58C798.055 1220.03 779.176 1214.27 779.176 1214.27C779.176 1214.27 761.163 1214.05 760.022 1215.73C758.895 1217.43 748.154 1226.56 748.154 1226.56V1226.56Z" fill="white"/>
<path d="M429.627 1142.75C323.721 1212.79 377.004 1315.23 478.779 1372.44C549.457 1412.17 662.748 1437.97 749.923 1405.85C799.533 1384.62 848.077 1359.13 864.835 1282.5C868.634 1262 862.594 1243.12 858.085 1235.82C853.576 1228.53 843.95 1222.25 836.353 1224.2C828.756 1226.15 827.377 1229.65 827.377 1229.65C827.377 1229.65 820.335 1218.27 808.6 1217.72C796.864 1217.17 792.023 1225.53 792.023 1225.53C792.023 1225.53 785 1212.35 770.54 1212.23C744.423 1211.99 743.985 1246.01 743.985 1246.01L756.359 1246.48C756.359 1246.48 761.378 1261.84 760.653 1276.69C759.927 1291.55 749.851 1307.06 749.851 1307.06L734.48 1306.27C734.48 1306.27 709.402 1356.75 602.752 1332.34C480.711 1304.4 413.295 1225.13 432.76 1180.07" fill="white"/>
<path d="M429.627 1142.75C323.721 1212.79 377.004 1315.23 478.779 1372.44C549.457 1412.17 662.748 1437.97 749.923 1405.85C799.533 1384.62 848.077 1359.13 864.835 1282.5C868.634 1262 862.594 1243.12 858.085 1235.82C853.576 1228.53 843.95 1222.25 836.353 1224.2C828.756 1226.15 827.377 1229.65 827.377 1229.65C827.377 1229.65 820.335 1218.27 808.6 1217.72C796.864 1217.17 792.023 1225.53 792.023 1225.53C792.023 1225.53 785 1212.35 770.54 1212.23C744.423 1211.99 743.985 1246.01 743.985 1246.01L756.359 1246.48C756.359 1246.48 761.378 1261.84 760.653 1276.69C759.927 1291.55 749.851 1307.06 749.851 1307.06L734.48 1306.27C734.48 1306.27 709.402 1356.75 602.752 1332.34C480.711 1304.4 413.295 1225.13 432.76 1180.07" stroke="#F23AE5" stroke-width="7.55905"/>
<path d="M379.068 1196.59C391.125 1196.7 385.743 1211.5 398.423 1211.61C411.103 1211.72 407.826 1196.84 417.105 1196.92M373.161 1244.22C386.767 1244.34 380.402 1229.44 392.463 1229.54C404.523 1229.64 399.141 1244.44 411.821 1244.55C424.502 1244.66 421.225 1229.79 430.504 1229.86M378.936 1261.5C390.996 1261.6 384.681 1276.39 398.291 1276.51C411.897 1276.63 405.532 1261.73 417.593 1261.83C429.657 1261.93 424.271 1276.73 436.951 1276.84C449.632 1276.95 446.355 1262.07 455.634 1262.15M396.854 1292.48C408.915 1292.59 402.603 1307.38 416.209 1307.49C429.816 1307.61 423.451 1292.71 435.511 1292.81C447.576 1292.91 442.19 1307.72 454.87 1307.82C467.55 1307.93 464.274 1293.06 473.552 1293.14" stroke="#F23AE5" stroke-width="3.77953"/>
<path d="M788.576 1221.03C788.576 1221.03 795.519 1230.78 798.743 1238.93L801.974 1247.08M820.793 1222.45C820.793 1222.45 826.84 1227.07 832.075 1241.12L833.964 1246.19" fill="#F23AE5"/>
<path d="M788.576 1221.03C788.576 1221.03 795.519 1230.78 798.743 1238.93L801.974 1247.08M820.793 1222.45C820.793 1222.45 826.84 1227.07 832.075 1241.12L833.964 1246.19" stroke="#F23AE5" stroke-width="7.55905"/>
<path d="M550.22 204.948C523.514 205.05 500.255 207.178 489.706 207.915C461.583 209.88 422.82 213.565 419.007 224.356C410.503 248.416 436.43 254.274 475.019 262.453C526.844 273.433 520.026 298.997 521.333 327.416C523.019 364.032 537.525 390.564 575.029 397.008C612.099 403.377 587.759 468.022 495.859 491.243C408.976 513.198 410.506 595.902 410.506 595.902L668.459 589.344C668.459 589.344 744.408 544.138 731.755 530.063C703.684 498.829 642.051 510.473 637.467 465.403C636.514 415.698 667.147 387.231 704.788 387.797C716.119 387.797 725.303 378.761 725.303 367.611C728.013 347.61 694.507 352.493 696.106 343.762C699.398 335.734 716.667 349.242 726.433 349.413C739.261 349.413 749.662 339.181 749.662 326.558C749.662 313.934 739.261 303.703 726.433 303.703C719.656 303.627 701.602 313.779 701.038 308.45C716.179 296.325 742.889 294.564 743.596 271.517C743.596 254.161 729.298 240.09 711.659 240.09C699.035 240.09 687.599 247.403 682.473 258.753C680.13 253.008 676.2 245.782 669.517 237.108C648.809 210.224 594.732 204.774 550.22 204.944V204.948Z" fill="#FAB5F5"/>
<path d="M624.371 284.978C614.323 287.071 604.489 280.605 602.406 270.536C600.323 260.467 606.779 250.607 616.827 248.514C626.875 246.421 636.709 252.887 638.793 262.956C640.876 273.025 634.419 282.885 624.371 284.978Z" stroke="white" stroke-width="7.55905"/>
<path d="M546.377 323.032C551.154 340.255 573.287 367.059 612.314 358.948C651.346 350.841 656.043 318.466 654.921 300.479" stroke="white" stroke-width="7.55905"/>
<path d="M1010.88 1739.78H1212.84V1840.34H1010.88V1739.78Z" fill="#B1F7E4" stroke="#31EFB8" stroke-width="7.55905"/>
<path d="M506.584 1678.31C506.584 1678.31 606.207 1821.61 771.254 1818.51C908.675 1815.94 897.836 1803.52 897.836 1803.52C897.836 1803.52 904.635 1781.27 937.016 1777.2C969.398 1773.12 962.424 1790.63 962.424 1790.63C962.424 1790.63 1014.81 1779.84 1026.08 1780.18C1037.36 1780.52 1042.3 1795.99 1031.82 1803.12C1021.34 1810.26 974.046 1813.53 974.046 1813.53C974.046 1813.53 987.32 1850.41 984.733 1861.19C982.137 1871.97 978.169 1877.62 913.039 1889.7C806.104 1909.54 718.161 1898.47 679.521 1885.08C540.734 1836.99 487.621 1761.95 506.587 1678.31L506.584 1678.31Z" fill="white" stroke="#F23AE5" stroke-width="7.56014"/>
<path d="M965.44 1789.63L935.21 1796.73" stroke="#F23AE5" stroke-width="7.56014"/>
<path d="M993.574 1816.58L983.637 1817.34C983.637 1817.34 977.839 1817.97 977.443 1818.06C977.046 1818.14 966.867 1818.28 966.867 1818.28L974.699 1851.81L979.177 1860.16L983.376 1853.81C983.376 1853.81 989.499 1845.79 989.454 1844.67C989.412 1843.55 990.852 1830.94 991.117 1828.86C991.378 1826.77 993.574 1816.58 993.574 1816.58V1816.58Z" fill="white"/>
<path d="M996.949 1812.54C996.949 1812.54 1000.27 1824.71 983.653 1832.74C967.038 1840.77 962.843 1839.8 962.843 1839.8M990.67 1831.95C990.67 1831.95 997.689 1842.07 982.163 1852.92C966.637 1863.76 960.979 1863.01 960.979 1863.01" stroke="#F23AE5" stroke-width="7.56014"/>
<path d="M546.479 1726.56C532.768 1725.8 537.719 1744.39 523.307 1743.58C508.894 1742.77 513.787 1724.73 503.238 1724.14M594.525 1759.85C580.814 1759.08 586.823 1777.74 571.352 1776.87C555.881 1776 564.289 1758.16 550.577 1757.38C536.867 1756.62 541.817 1775.21 527.405 1774.41C512.988 1773.6 517.886 1755.55 507.336 1754.96M619.398 1798.05C605.686 1797.28 611.691 1815.93 596.225 1815.06C580.754 1814.2 589.161 1796.35 575.45 1795.58C561.739 1794.81 566.69 1813.41 552.278 1812.6C537.861 1811.79 542.754 1793.75 532.205 1793.16" stroke="#F23AE5" stroke-width="3.77783"/>
<path d="M307.563 1314.44L465.064 1318.01L351.134 1431.23L201.132 1418.91L307.563 1314.44ZM204.658 1344.65L254.661 1313.83L212.485 1285.05L197.084 1293.89L204.658 1344.65Z" fill="white"/>
<path d="M203.451 1345.22L255.609 1312.68L362.23 1481.84L310.073 1514.38L203.451 1345.22Z" fill="white" stroke="black" stroke-width="7.56013"/>
<path d="M228.735 1329.97L335.704 1498.14M203.484 1345.25L255.638 1312.71L192.014 1271.9L203.484 1345.25Z" stroke="black" stroke-width="7.56007"/>
<path d="M192.014 1271.9L196.093 1296.69L211.743 1284.8L192.014 1271.9Z" fill="black" stroke="black" stroke-width="7.56007"/>
<path d="M194.892 1425.18L353.738 1435.46L425.794 1627.79L263.774 1614.56L194.892 1425.18ZM467.547 1322.27L354.739 1434.57L427.11 1626.79L540.359 1510.17L467.547 1322.27Z" fill="white"/>
<path d="M305.416 1310.56L193.489 1417.65L189.479 1421.55L259.631 1614.38L423.432 1627.76L426.161 1627.99L428.848 1625.21L543.338 1507.32L468.382 1314L465.464 1313.85L305.416 1310.56ZM308.383 1318.18L458.022 1321.26L350.963 1427.84L203.736 1418.32L308.383 1318.18ZM199.004 1425.59L349.637 1435.34L418.745 1619.79L265.077 1607.24L199.004 1425.59ZM464.697 1325.29L534.543 1505.53L427.136 1616.14L357.717 1431.79L464.697 1325.29Z" fill="black"/>
<path d="M215.411 1356.79L247.234 1407.67L267.746 1398.63L242.022 1357.96L215.411 1356.79ZM270.002 1342.58L279.474 1357.52L264.832 1379.69L243.379 1345.81L270.002 1342.58ZM217.41 436.138L240.896 483.491L274.863 444.978L225.872 430.079L217.41 436.138Z" fill="white"/>
<path d="M239.641 483.617L275.585 443.956L405.851 561.822L369.908 601.483L239.641 483.617Z" fill="white" stroke="black" stroke-width="7.55957"/>
<path d="M257.15 464.824L387.473 581.78M239.634 483.626L275.575 443.965L212.331 424.394L239.634 483.626Z" stroke="black" stroke-width="7.55956"/>
<path d="M212.331 424.394L221.727 444.36L232.001 430.671L212.331 424.394Z" fill="black" stroke="black" stroke-width="7.55956"/>
<path d="M918.732 377.9C918.732 377.9 845.545 389.84 779.924 472.842C714.292 555.844 685.608 609.495 582.997 633.777C493.594 654.933 360.808 600.172 360.808 600.172C360.808 600.172 349.74 614.77 345.622 626.272C341.509 637.774 347.564 665.081 334.454 675.034C321.903 684.555 307.925 678.383 302.909 655.999C298.463 636.151 322.501 603.186 326.984 599.97C331.473 596.749 312.069 605.579 292.892 604.175C275.132 602.87 247.515 571.475 264.602 547.547C281.688 523.613 294.819 516.234 306.466 526.684C317.365 536.463 308.073 554.494 299.69 559.292C291.302 564.09 313.397 575.442 327.014 566.655C334.355 561.922 357.773 546.185 355.023 528.965C352.283 511.869 335.291 518.701 332.785 503.958C330.414 490.031 343.002 482.68 359.754 485.813C373.04 488.298 383.874 494.301 389.873 510.149C396.137 526.686 393.342 532.737 393.342 532.737C393.342 532.737 471.096 573.221 534.325 558.774C618.199 539.606 629.024 519.343 749.412 440.854C869.81 362.361 963.952 376.337 963.952 376.337" fill="white"/>
<path d="M918.732 377.9C918.732 377.9 845.545 389.84 779.924 472.842C714.292 555.844 685.608 609.495 582.997 633.777C493.594 654.933 360.808 600.172 360.808 600.172C360.808 600.172 349.74 614.77 345.622 626.272C341.509 637.774 347.564 665.081 334.454 675.034C321.903 684.555 307.925 678.383 302.909 655.999C298.463 636.151 322.501 603.186 326.984 599.97C331.473 596.749 312.069 605.579 292.892 604.175C275.132 602.87 247.515 571.475 264.602 547.547C281.688 523.613 294.819 516.234 306.466 526.684C317.365 536.463 308.073 554.494 299.69 559.292C291.302 564.09 313.397 575.442 327.014 566.655C334.355 561.922 357.773 546.185 355.023 528.965C352.283 511.869 335.291 518.701 332.785 503.958C330.414 490.031 343.002 482.68 359.754 485.813C373.04 488.298 383.874 494.301 389.873 510.149C396.137 526.686 393.342 532.737 393.342 532.737C393.342 532.737 471.096 573.221 534.325 558.774C618.199 539.606 629.024 519.343 749.412 440.854C869.81 362.361 963.952 376.337 963.952 376.337" stroke="#F23AE5" stroke-width="7.55772"/>
<path d="M374.91 606.778C374.91 606.778 369.939 619.941 370.844 637.026C371.748 654.112 370.557 658.633 363.603 662.569C354.825 667.538 344.083 656.886 344.083 656.886" stroke="#F23AE5" stroke-width="7.55772"/>
<path d="M389.312 609.755C389.312 609.755 387.313 621.594 390.649 634.93C393.984 648.27 393.715 652.191 388.705 657.233C382.383 663.593 373.274 658.188 373.274 658.188" stroke="#F23AE5" stroke-width="6.24934"/>
<path d="M483.738 835.354H642.837V909.093H483.738V835.354Z" fill="#B1F7E4" stroke="#31EFB8" stroke-width="7.55905"/>
<path d="M682.326 958.249C682.326 958.249 818.113 955.573 921.653 965.483C1066.17 979.309 1172.18 1077.44 1172.18 1077.44C1172.18 1077.44 1170.47 974.297 1040.23 906.179C903.436 834.632 590.495 860.499 590.495 860.499C590.495 860.499 567.938 860.405 569.447 873.047C570.694 883.479 580.267 890.085 612.718 890.085C645.169 890.085 652.222 887.364 652.222 887.364C652.222 887.364 628.237 890.558 628.237 903.34C628.237 916.119 645.638 929.846 661.629 928.425C677.62 927.007 687.553 910.793 677.412 902.157C667.272 893.517 647.052 902.391 647.052 902.391" fill="white"/>
<path d="M682.326 958.249C682.326 958.249 818.113 955.573 921.653 965.483C1066.17 979.309 1172.18 1077.44 1172.18 1077.44C1172.18 1077.44 1170.47 974.297 1040.23 906.179C903.436 834.632 590.495 860.499 590.495 860.499C590.495 860.499 567.938 860.405 569.447 873.047C570.694 883.479 580.267 890.085 612.718 890.085C645.169 890.085 652.222 887.364 652.222 887.364C652.222 887.364 628.237 890.558 628.237 903.34C628.237 916.119 645.638 929.846 661.629 928.425C677.62 927.007 687.553 910.793 677.412 902.157C667.272 893.517 647.052 902.391 647.052 902.391" stroke="#F23AE5" stroke-width="7.55905"/>
<path d="M1096.95 946.45C1081.06 946.45 1087.99 966.127 1071.29 966.127C1054.59 966.127 1059.07 946.45 1046.85 946.45M1144.2 1001.96C1126.28 1001.96 1134.83 982.287 1118.94 982.287C1103.07 982.287 1109.98 1001.96 1093.29 1001.96C1076.59 1001.96 1081.07 982.287 1068.85 982.287" stroke="#F23AE5" stroke-width="3.77988"/>
<path d="M1046.49 732.297H917.205C912.471 732.297 908.633 736.135 908.633 740.869V750.87C908.633 755.604 912.471 759.442 917.205 759.442H1046.49C1051.23 759.442 1055.06 755.604 1055.06 750.87V740.869C1055.06 736.135 1051.23 732.297 1046.49 732.297Z" fill="white" stroke="black" stroke-width="7.55905"/>
<path d="M930.773 609.44H750.059C745.325 609.44 741.487 613.278 741.487 618.012V750.866C741.487 755.6 745.325 759.438 750.059 759.438H930.773C935.507 759.438 939.345 755.6 939.345 750.866V618.012C939.345 613.278 935.507 609.44 930.773 609.44Z" fill="white" stroke="black" stroke-width="7.55905"/>
<path d="M978.595 731.81H963.205C958.471 731.81 954.633 728.718 954.633 724.905C954.633 721.091 958.471 718 963.205 718H978.595C983.33 718 987.167 721.091 987.167 724.905C987.167 728.718 983.33 731.81 978.595 731.81Z" fill="white" stroke="black" stroke-width="7.55905"/>
<path d="M1021.21 731.81H1005.82C1001.08 731.81 997.244 728.718 997.244 724.905C997.244 721.091 1001.08 718 1005.82 718H1021.21C1025.94 718 1029.78 721.091 1029.78 724.905C1029.78 728.718 1025.94 731.81 1021.21 731.81Z" fill="white" stroke="black" stroke-width="7.55905"/>
<path d="M1167.4 950.94C1165.1 949.987 1162.35 948.85 1161.31 948.41C1160.26 947.973 1156.72 946.176 1153.43 944.412C1127.33 930.424 1107.01 910.264 1092.38 883.838C1081.79 864.7 1075.68 843.271 1074.25 820.196C1072.49 791.764 1079.79 761.485 1094.31 736.916C1109.38 711.43 1130.72 691.431 1156.81 678.343C1169.08 672.19 1178.84 668.691 1191.76 665.817C1203.42 663.222 1209.14 662.663 1224 662.663C1238.85 662.663 1244.57 663.222 1256.23 665.817C1269.15 668.691 1278.91 672.19 1291.18 678.343C1317.27 691.431 1338.61 711.43 1353.68 736.916C1368.21 761.489 1375.5 791.764 1373.74 820.196C1372.06 847.328 1364.21 871.286 1349.59 893.884C1333.34 919.002 1310.15 938.446 1282.32 950.276C1276.19 952.884 1273.34 953.2 1270.26 951.613C1266.58 949.711 1266.6 949.774 1259.02 925.378C1254.11 909.624 1249.17 893.877 1244.21 878.139C1239 861.851 1237.17 855.367 1237.17 853.146C1237.17 849.825 1239.01 847.305 1243.7 844.227C1265.83 829.667 1267.54 799.129 1247.13 782.829C1238.08 775.601 1224.92 773 1213.91 776.258C1197.28 781.176 1186.61 795.348 1186.59 812.539C1186.58 825.098 1193.18 836.914 1204.3 844.227C1206.37 845.587 1208.6 847.542 1209.4 848.685C1211.88 852.249 1211.73 853.061 1203.55 878.875C1201.61 885.001 1191.09 918.529 1188.97 925.378C1183.53 942.921 1182.04 947.306 1181.04 948.824C1179.66 950.89 1176.17 952.691 1173.57 952.681C1172.43 952.674 1169.79 951.928 1167.39 950.94H1167.4Z" fill="white" stroke="#31EFB8" stroke-width="7.55977"/>
<path d="M1070.07 736.64V883.779" stroke="black" stroke-width="7.55977"/>
<path d="M1083.11 798.104H1057.02V824.799H1083.11V798.104Z" fill="white" stroke="#F23AE5" stroke-width="7.55977"/>
<path d="M1070.07 742.849C1076.41 742.849 1081.55 737.707 1081.55 731.364C1081.55 725.022 1076.41 719.88 1070.07 719.88C1063.72 719.88 1058.58 725.022 1058.58 731.364C1058.58 737.707 1063.72 742.849 1070.07 742.849Z" fill="white" stroke="black" stroke-width="7.55977"/>
<path d="M1070.07 904.515C1076.41 904.515 1081.55 899.373 1081.55 893.03C1081.55 886.687 1076.41 881.546 1070.07 881.546C1063.72 881.546 1058.58 886.687 1058.58 893.03C1058.58 899.373 1063.72 904.515 1070.07 904.515Z" fill="white" stroke="black" stroke-width="7.55977"/>
<path d="M1297.79 656.988H1150.62" stroke="black" stroke-width="7.55977"/>
<path d="M1236.31 670.026V643.949H1209.61V670.026H1236.31Z" fill="white" stroke="#F23AE5" stroke-width="7.55977"/>
<path d="M1291.58 656.988C1291.58 663.331 1296.72 668.473 1303.07 668.473C1309.41 668.473 1314.55 663.331 1314.55 656.988C1314.55 650.645 1309.41 645.503 1303.07 645.503C1296.72 645.503 1291.58 650.645 1291.58 656.988Z" fill="white" stroke="black" stroke-width="7.55977"/>
<path d="M1129.88 656.988C1129.88 663.331 1135.02 668.473 1141.37 668.473C1147.71 668.473 1152.85 663.331 1152.85 656.988C1152.85 650.645 1147.71 645.503 1141.37 645.503C1135.02 645.503 1129.88 650.645 1129.88 656.988Z" fill="white" stroke="black" stroke-width="7.55977"/>
<path d="M1374.98 885.27V738.131" stroke="black" stroke-width="7.55977"/>
<path d="M1361.94 823.806H1388.02V797.112H1361.94V823.806Z" fill="white" stroke="#F23AE5" stroke-width="7.55977"/>
<path d="M1374.98 879.061C1368.64 879.061 1363.5 884.203 1363.5 890.546C1363.5 896.889 1368.64 902.031 1374.98 902.031C1381.33 902.031 1386.47 896.889 1386.47 890.546C1386.47 884.203 1381.33 879.061 1374.98 879.061Z" fill="white" stroke="black" stroke-width="7.55977"/>
<path d="M1374.98 717.396C1368.64 717.396 1363.5 722.537 1363.5 728.88C1363.5 735.223 1368.64 740.365 1374.98 740.365C1381.33 740.365 1386.47 735.223 1386.47 728.88C1386.47 722.537 1381.33 717.396 1374.98 717.396Z" fill="white" stroke="black" stroke-width="7.55977"/>
<path d="M635.996 944.284C635.996 944.284 634.469 944.639 635.176 953.392C635.879 962.153 656.625 978.046 673.27 969.607C691.28 960.475 678.679 943.573 678.679 943.573C678.679 943.573 669.661 949.635 659.018 951.057C648.374 952.478 636 944.284 636 944.284H635.996Z" fill="white" stroke="#F23AE5" stroke-width="7.55905"/>
<path d="M632.119 917.54C632.119 917.54 629.413 922.51 630.116 931.146C630.826 939.786 645.169 956.117 667.393 948.071C691.986 939.162 674.914 923.22 674.914 923.22C674.914 923.22 670.485 927.064 659.184 928.799C649.164 930.333 632.119 917.536 632.119 917.536V917.54ZM735.704 884.405C735.704 884.405 725.828 867.601 721.833 856.474C717.835 845.355 722.064 829.734 718.069 819.555C714.07 809.377 699.727 810.56 694.318 824.287C688.91 838.015 699.254 874.226 699.254 874.226C699.254 874.226 695.494 880.379 694.08 891.506C692.67 902.63 698.551 920.616 698.551 920.616" fill="white"/>
<path d="M735.704 884.405C735.704 884.405 725.828 867.601 721.833 856.474C717.835 845.355 722.064 829.734 718.069 819.555C714.07 809.377 699.727 810.56 694.318 824.287C688.91 838.015 699.254 874.226 699.254 874.226C699.254 874.226 695.494 880.379 694.08 891.506C692.67 902.63 698.551 920.616 698.551 920.616M632.119 917.54C632.119 917.54 629.413 922.51 630.116 931.146C630.826 939.786 645.169 956.117 667.393 948.071C691.986 939.162 674.914 923.22 674.914 923.22C674.914 923.22 670.485 927.064 659.184 928.799C649.164 930.333 632.119 917.536 632.119 917.536V917.54Z" stroke="#F23AE5" stroke-width="7.55905"/>
<path d="M483.738 743.353H642.837V810.526H483.738V743.353Z" fill="#B1F7E4" stroke="#31EFB8" stroke-width="7.55905"/>
<path d="M253.841 1683.22C253.841 1701.75 238.666 1716.82 219.901 1716.82C201.135 1716.82 185.964 1701.75 185.964 1683.22C185.964 1664.68 201.135 1649.61 219.905 1649.61C238.666 1649.61 253.841 1664.68 253.841 1683.22Z" stroke="#FAB5F5" stroke-width="7.55905"/>
<path d="M1135.47 1823.12C1135.47 1847.51 1115.51 1867.33 1090.83 1867.33C1066.15 1867.33 1046.2 1847.51 1046.2 1823.12C1046.2 1798.73 1066.15 1778.91 1090.83 1778.91C1115.51 1778.91 1135.47 1798.73 1135.47 1823.12ZM540.48 743.175C540.48 768.472 519.784 789.028 494.181 789.028C468.586 789.028 447.889 768.468 447.889 743.175C447.889 717.879 468.586 697.322 494.185 697.322C519.784 697.322 540.48 717.883 540.48 743.175Z" fill="white" stroke="black" stroke-width="7.55905"/>
<path d="M1351.23 1250.74L1318.37 1294.47L1274.64 1261.61L1307.5 1217.88L1351.23 1250.74Z" stroke="#FAB5F5" stroke-width="7.55905"/>
<path d="M1240.86 1052.36H1301.08M1270.97 1050.82V1112.98" stroke="#FAB5F5" stroke-width="7.55905"/>
<path d="M1082.08 1797.1L1081.7 1797.27C1081.18 1797.51 1080.93 1797.84 1080.57 1798.73C1079.6 1801.19 1078.63 1803.64 1077.67 1806.1L1076.63 1808.74L1075.82 1810.79L1075.01 1812.87L1074.1 1815.18L1071.36 1822.14L1070.45 1824.44C1069.9 1825.81 1070.11 1826.75 1071.05 1827.26L1071.36 1827.42L1078.64 1827.44C1082.63 1827.45 1085.91 1827.48 1085.91 1827.51C1085.91 1827.53 1085.72 1828.02 1085.5 1828.6L1084.89 1830.14L1084.31 1831.63L1083.56 1833.53L1082.73 1835.64L1082.08 1837.32L1081.33 1839.22C1080.86 1840.42 1080.39 1841.62 1079.92 1842.83L1079.17 1844.73L1078.49 1846.48L1077.91 1847.96L1077.24 1849.68C1077.05 1850.17 1076.85 1850.69 1076.78 1850.83C1076.62 1851.24 1076.58 1851.7 1076.67 1852.13C1076.78 1852.55 1077.16 1852.98 1077.6 1853.18C1077.84 1853.29 1078.09 1853.35 1078.35 1853.36C1078.6 1853.36 1078.86 1853.32 1079.1 1853.22C1079.39 1853.04 1079.65 1852.83 1079.88 1852.57C1081.63 1850.73 1083.38 1848.88 1085.13 1847.04L1086.66 1845.44C1087.13 1844.95 1087.87 1844.17 1088.29 1843.72C1090.21 1841.69 1092.13 1839.67 1094.06 1837.65L1095.44 1836.21C1096.48 1835.1 1097.53 1833.99 1098.59 1832.89L1099.9 1831.52C1103.01 1828.26 1106.11 1824.99 1109.21 1821.73C1109.96 1820.93 1110.64 1820.19 1110.72 1820.07C1110.93 1819.68 1110.99 1819.22 1110.9 1818.79C1110.85 1818.53 1110.75 1818.3 1110.59 1818.09C1110.44 1817.89 1110.24 1817.72 1110.01 1817.6L1109.62 1817.41H1103.09C1098.88 1817.41 1096.55 1817.38 1096.55 1817.34C1096.55 1817.3 1096.9 1816.59 1097.33 1815.76C1097.75 1814.92 1099.24 1811.97 1100.64 1809.19L1104.42 1801.7C1105.57 1799.45 1105.66 1799.26 1105.66 1798.88C1105.66 1798.52 1105.55 1798.18 1105.36 1797.89C1105.16 1797.59 1104.88 1797.36 1104.56 1797.23C1104.27 1797.1 1103.74 1797.1 1093.17 1797.1H1082.08ZM1096.23 1800.61C1099.54 1800.61 1101.02 1800.63 1101.02 1800.67C1101.02 1800.71 1100.52 1801.73 1099.91 1802.92C1099.31 1804.12 1097.57 1807.54 1096.07 1810.53L1092.63 1817.34C1091.94 1818.71 1091.93 1818.72 1091.95 1819.2C1091.95 1819.5 1092.04 1819.8 1092.13 1819.98C1092.37 1820.38 1092.75 1820.68 1093.19 1820.84C1093.37 1820.88 1095.5 1820.91 1099.25 1820.91C1102.44 1820.91 1105.04 1820.93 1105.04 1820.96C1105.04 1820.99 1104.83 1821.23 1104.57 1821.5L1102.02 1824.18C1100.86 1825.41 1099.69 1826.64 1098.53 1827.87L1097.75 1828.7C1094.82 1831.76 1094.67 1831.91 1092.76 1833.94C1091.86 1834.89 1090.95 1835.84 1090.04 1836.79C1088.42 1838.5 1086.79 1840.2 1085.17 1841.92C1084.21 1842.93 1083.42 1843.76 1083.41 1843.76C1083.35 1843.76 1083.41 1843.63 1083.86 1842.47C1084.29 1841.37 1084.55 1840.73 1085.3 1838.81L1086.04 1836.91L1087.29 1833.71L1088.12 1831.59C1088.66 1830.24 1089.12 1829.04 1089.54 1827.98C1089.72 1827.51 1089.95 1826.92 1090.05 1826.68C1090.16 1826.42 1090.24 1826.15 1090.28 1825.88C1090.31 1825.53 1090.22 1825.17 1090.04 1824.87C1089.86 1824.56 1089.59 1824.32 1089.27 1824.17L1088.93 1824.01L1081.73 1824C1077.78 1824 1074.52 1823.97 1074.49 1823.95C1074.45 1823.92 1074.49 1823.79 1074.55 1823.65C1074.61 1823.51 1074.81 1823.01 1075 1822.54C1075.42 1821.46 1076.25 1819.33 1077.08 1817.22C1077.43 1816.32 1078 1814.84 1078.36 1813.95L1079.29 1811.56L1080.8 1807.69L1081.48 1805.94C1081.91 1804.87 1082.06 1804.46 1082.83 1802.49C1083.05 1801.91 1083.31 1801.26 1083.41 1801.03L1083.58 1800.62L1092.3 1800.6H1096.23V1800.61ZM486.342 717.244L485.964 717.418C485.443 717.66 485.193 717.985 484.838 718.88C483.864 721.334 482.896 723.791 481.935 726.25L480.896 728.889L480.087 730.937L479.271 733.02L478.364 735.325L475.624 742.287L474.709 744.592C474.161 745.961 474.365 746.898 475.314 747.408L475.624 747.571L482.899 747.59C486.898 747.601 490.175 747.627 490.175 747.65C490.175 747.673 489.986 748.168 489.759 748.746L489.154 750.284L488.572 751.774L487.828 753.671L486.996 755.795L486.339 757.469L485.598 759.367C485.123 760.569 484.65 761.772 484.18 762.976L483.436 764.873L482.756 766.623L482.17 768.112L481.505 769.825C481.316 770.316 481.108 770.834 481.047 770.977C480.884 771.392 480.845 771.845 480.934 772.281C481.047 772.697 481.425 773.124 481.867 773.332C482.101 773.439 482.353 773.498 482.61 773.505C482.867 773.511 483.122 773.465 483.36 773.37C483.65 773.191 483.912 772.973 484.139 772.72C485.891 770.876 487.642 769.032 489.392 767.186L490.919 765.584C493.378 762.979 495.846 760.382 498.323 757.794L499.699 756.351C500.747 755.244 501.798 754.14 502.851 753.04L504.163 751.664C507.27 748.405 510.373 745.142 513.472 741.875C514.228 741.077 514.908 740.333 514.984 740.219C515.192 739.825 515.256 739.371 515.165 738.934C515.118 738.682 515.012 738.444 514.858 738.238C514.703 738.033 514.503 737.867 514.273 737.752L513.888 737.562H507.349C503.146 737.562 500.814 737.532 500.814 737.487C500.814 737.449 501.162 736.731 501.585 735.903C502.012 735.072 503.505 732.12 504.911 729.334C506.31 726.553 508.01 723.185 508.691 721.851C509.836 719.595 509.919 719.406 509.915 719.024C509.918 718.672 509.815 718.327 509.619 718.034C509.424 717.741 509.145 717.513 508.819 717.38C508.532 717.251 508.003 717.244 497.428 717.244H486.342ZM500.493 720.755C503.8 720.755 505.285 720.778 505.285 720.819C505.285 720.861 504.786 721.877 504.178 723.068C503.569 724.266 501.835 727.687 500.33 730.676L496.891 737.487C496.199 738.855 496.196 738.866 496.218 739.346C496.218 739.649 496.301 739.944 496.396 740.129C496.637 740.529 497.012 740.83 497.454 740.979C497.632 741.032 499.76 741.055 503.516 741.055C506.699 741.055 509.299 741.081 509.299 741.108C509.299 741.134 509.095 741.38 508.838 741.648L506.287 744.332C505.124 745.561 503.958 746.788 502.791 748.013C498.307 752.666 493.856 757.35 489.438 762.065C488.856 762.687 488.267 763.3 487.669 763.906C487.616 763.906 487.669 763.777 488.122 762.621C488.557 761.517 488.81 760.871 489.555 758.955L490.299 757.061L491.551 753.86L492.382 751.74L493.799 748.13C493.985 747.658 494.215 747.072 494.317 746.826C494.422 746.57 494.499 746.302 494.544 746.029C494.571 745.674 494.488 745.32 494.307 745.015C494.126 744.709 493.855 744.467 493.531 744.32L493.198 744.158L485.998 744.146C482.037 744.146 478.779 744.12 478.753 744.093C478.715 744.067 478.753 743.935 478.817 743.795C478.878 743.659 479.078 743.16 479.263 742.688L481.342 737.366L482.619 734.093L483.549 731.712L485.061 727.842L485.745 726.092L487.094 722.63C487.317 722.059 487.574 721.405 487.669 721.178L487.839 720.77L496.562 720.751L500.493 720.747V720.755Z" fill="black" stroke="black" stroke-width="1.88976"/>
<path d="M1010.88 1679.78H1102.48V1718.55H1010.88V1679.78ZM1121.17 1679.78H1213.12V1718.55H1121.17V1679.78Z" fill="#B1F7E4" stroke="#31EFB8" stroke-width="7.55905"/>
<path d="M736.466 486.123C720.579 486.123 727.507 505.8 710.803 505.8C694.105 505.8 698.584 486.123 686.365 486.123M700.321 541.877C682.951 541.877 691.238 522.791 675.838 522.791C660.439 522.791 667.148 541.877 650.962 541.877C634.771 541.877 639.116 522.791 627.271 522.791" stroke="#F23AE5" stroke-width="3.77988"/>
<path d="M756.522 504.906C768.582 504.804 763.196 490.004 775.877 489.898C788.557 489.788 785.284 504.664 794.559 504.585M786.614 463.282C800.221 463.165 793.856 478.064 805.916 477.962C817.981 477.86 812.595 463.059 825.275 462.95C837.956 462.844 834.679 477.716 843.957 477.637M806.393 446.006C818.449 445.9 812.138 431.107 825.744 430.994C839.354 430.88 832.985 445.779 845.05 445.673C857.106 445.571 851.724 430.771 864.405 430.665C877.085 430.552 873.812 445.428 883.087 445.348M846.308 415.022C858.369 414.919 852.057 400.126 865.667 400.009C879.273 399.896 872.905 414.795 884.969 414.689C897.026 414.587 891.644 399.786 904.324 399.68C917.004 399.571 913.727 414.447 923.006 414.368" stroke="#F23AE5" stroke-width="3.77953"/>
<path d="M1151.16 1824.72C1151.16 1824.72 1150.79 1808.47 1144.15 1794.92C1137.52 1781.37 1123.18 1771.75 1123.18 1771.75M1036.21 1848.66C1036.21 1848.66 1039.89 1855.79 1046.5 1863.08C1053.12 1870.36 1060.91 1874.2 1060.91 1874.2M467.838 686.853C467.838 686.853 460.517 690.133 452.878 696.332C445.24 702.53 440.973 710.104 440.973 710.104M551.811 726.008C551.811 726.008 551.067 722.902 548.614 716.597C546.165 710.293 544.222 707.746 544.222 707.746" stroke="black" stroke-width="7.55905"/>
<path d="M819.821 629.271L785.481 663.612L755.687 633.818L728.417 661.087L696.102 628.769L664.789 660.075M819.821 669.274L785.481 703.611L755.687 673.817L728.417 701.086L696.102 668.771L664.789 700.077M819.821 709.273L785.481 743.614L755.687 713.82L728.417 741.085L696.102 708.77L664.789 740.076" stroke="#31EFB8" stroke-width="4.1537"/>
<path d="M331.107 1783.57L174.331 1834.03C168.698 1835.84 165.311 1840.97 166.766 1845.49L212.819 1988.58C214.273 1993.1 220.019 1995.29 225.652 1993.48L382.428 1943.02C388.06 1941.21 391.448 1936.07 389.993 1931.55L343.94 1788.47C342.486 1783.95 336.74 1781.75 331.107 1783.57Z" fill="#31EFB8"/>
<path d="M266.93 1760.59L129.795 1804.73C124.162 1806.54 120.773 1811.67 122.225 1816.18L168.445 1959.79C169.897 1964.3 175.64 1966.49 181.273 1964.67L318.408 1920.54C324.041 1918.72 327.43 1913.6 325.978 1909.08L279.758 1765.48C278.306 1760.97 272.563 1758.78 266.93 1760.59Z" fill="white" stroke="#31EFB8" stroke-width="7.58447"/>
<path d="M259.465 1777.16L122.331 1821.3C116.698 1823.11 113.309 1828.24 114.761 1832.75L160.98 1976.36C162.432 1980.87 168.176 1983.06 173.809 1981.24L310.944 1937.11C316.576 1935.29 319.965 1930.16 318.513 1925.65L272.294 1782.05C270.842 1777.54 265.098 1775.35 259.465 1777.16Z" fill="white" stroke="#31EFB8" stroke-width="7.58447"/>
<path d="M359.396 1868.42C360.433 1867.4 360.98 1867.1 363.021 1866.46C365.062 1865.82 365.756 1865.72 367.601 1865.84C370.434 1866.02 373.523 1867.04 375.823 1868.55C377.381 1869.58 377.882 1870.07 379.11 1871.79C380.344 1873.52 380.589 1874.09 380.802 1875.57C381.059 1877.37 380.247 1880.25 379.284 1880.94C378.99 1881.15 378.924 1881.5 379.122 1881.78C379.424 1882.2 392.965 1896.26 394.517 1897.76L395.144 1898.36L387.459 1900.78L379.774 1903.2L379.469 1902.49C378.773 1900.87 370.939 1884.87 370.632 1884.44C370.44 1884.17 369.987 1883.98 369.557 1884C368.145 1884.05 364.28 1882.65 362.345 1881.37C360.749 1880.32 360.26 1879.84 359.026 1878.11C357.798 1876.39 357.544 1875.81 357.335 1874.36C357.194 1873.28 357.307 1872.18 357.665 1871.15C358.023 1870.12 358.616 1869.18 359.397 1868.42L359.396 1868.42Z" fill="#31EFB8"/>
<path d="M393.216 1782.12L380.246 1805.93L358.953 1795.9L348.651 1814.81L325.552 1803.92L313.726 1825.63M379.12 1759.09C381.398 1766.17 377.454 1773.78 370.289 1776.09C363.121 1778.4 355.475 1774.51 353.198 1767.43C350.921 1760.36 354.864 1752.74 362.032 1750.43C369.2 1748.13 376.843 1752.02 379.12 1759.09Z" stroke="#31EFB8" stroke-width="7.56028"/>
<path d="M1109.91 1430.87C1109.91 1430.87 1098.94 1438.5 1067.07 1441.49C1035.19 1444.48 1022.9 1441.16 1022.9 1441.16L1067.4 1477.02L1041.17 1530.48L1091.64 1525.5L1109.91 1430.87Z" fill="white" stroke="#F23AE5" stroke-width="7.55865"/>
<path d="M1089.98 1447.8C1089.98 1447.8 1088.99 1432.53 1112.56 1428.87C1135.69 1425.29 1119.2 1466.39 1119.2 1466.39M1455.92 1468.05C1455.92 1468.05 1464.56 1468.05 1486.81 1468.72C1509.06 1469.38 1518.35 1474.03 1518.35 1474.03L1472.86 1505.91L1501.09 1557.04C1501.09 1557.04 1468.21 1558.7 1456.92 1558.04C1445.63 1557.37 1435 1552.72 1435 1552.72L1437.99 1477.68L1455.92 1468.05Z" fill="white"/>
<path d="M1089.98 1447.8C1089.98 1447.8 1088.99 1432.53 1112.56 1428.87C1135.69 1425.29 1119.2 1466.39 1119.2 1466.39M1455.92 1468.05C1455.92 1468.05 1464.56 1468.05 1486.81 1468.72C1509.06 1469.38 1518.35 1474.03 1518.35 1474.03L1472.86 1505.91L1501.09 1557.04C1501.09 1557.04 1468.21 1558.7 1456.92 1558.04C1445.63 1557.37 1435 1552.72 1435 1552.72L1437.99 1477.68L1455.92 1468.05Z" stroke="#F23AE5" stroke-width="7.55865"/>
<path d="M1456.91 1540.1C1456.91 1540.1 1454.45 1555.34 1415.31 1555.12C1376.92 1554.9 1414.55 1517.01 1414.55 1517.01" fill="white"/>
<path d="M1456.91 1540.1C1456.91 1540.1 1454.45 1555.34 1415.31 1555.12C1376.92 1554.9 1414.55 1517.01 1414.55 1517.01" stroke="#F23AE5" stroke-width="7.55865"/>
<path d="M1284.25 1641.71C1284.25 1641.71 1365.6 1606.51 1404.45 1550.73C1433.09 1509.61 1486.19 1402.69 1409.77 1355.49C1339.17 1311.9 1283.58 1374.75 1283.58 1374.75C1283.58 1374.75 1208.53 1308.35 1149.42 1358.82C1085.82 1413.12 1116.84 1515.04 1190.6 1581.28C1246.05 1631.08 1284.25 1641.71 1284.25 1641.71V1641.71Z" fill="#B1F7E4" stroke="#31EFB8" stroke-width="7.55865"/>
<path d="M1089.98 1450.13L1089.65 1544.42C1089.65 1544.42 1126.51 1574.31 1179.97 1571.65C1233.44 1568.99 1301.51 1522.84 1367.93 1515.87C1434.34 1508.89 1457.58 1542.43 1457.58 1542.43L1459.58 1446.47C1459.58 1446.47 1443.97 1420.57 1372.24 1418.91C1300.52 1417.25 1245.06 1473.7 1181.63 1474.69C1118.21 1475.69 1089.98 1450.13 1089.98 1450.13H1089.98Z" fill="white" stroke="#F23AE5" stroke-width="7.55865"/>
<path d="M1158.97 1261.81L1164.14 1274.95L1158.97 1261.81ZM1172.12 1293.74L1182.92 1319.57L1172.12 1293.74ZM1082.42 1303.6L1117.18 1336L1082.42 1303.6ZM1122.81 1341.63L1128.92 1346.8L1122.81 1341.63ZM1041.1 1393.29L1052.84 1394.22L1041.1 1393.29ZM1060.82 1396.1L1103.56 1398.92L1060.82 1396.1ZM1412.1 1576.42L1456.24 1596.14L1412.1 1576.42ZM1377.35 1615.39L1393.31 1629.95L1377.35 1615.39ZM1400.83 1637.46L1418.2 1653.42L1400.83 1637.46ZM1339.31 1648.73L1357.62 1681.6L1339.31 1648.73ZM1361.38 1688.65L1366.54 1698.51L1361.38 1688.65Z" stroke="black" stroke-width="7.55865"/>
<path d="M1131.58 1379.12C1142.79 1379.12 1137.91 1392.92 1149.7 1392.92C1161.49 1392.92 1158.32 1379.12 1166.95 1379.12M1119.03 1423.44C1131.68 1423.44 1125.65 1409.64 1136.86 1409.64C1148.08 1409.64 1143.18 1423.44 1154.98 1423.44C1166.77 1423.44 1163.6 1409.64 1172.23 1409.64M1118.96 1439.46C1130.17 1439.46 1124.42 1453.26 1137.07 1453.26C1149.72 1453.26 1143.69 1439.46 1154.9 1439.46C1166.12 1439.46 1161.23 1453.26 1173.02 1453.26C1184.81 1453.26 1181.65 1439.46 1190.27 1439.46M1189.39 1576.36C1200.61 1576.36 1194.86 1590.16 1207.51 1590.16C1220.16 1590.16 1214.12 1576.36 1225.34 1576.36C1236.55 1576.36 1231.67 1590.16 1243.46 1590.16C1255.25 1590.16 1252.08 1576.36 1260.71 1576.36M1234.33 1614.96C1246.98 1614.96 1240.94 1601.15 1252.16 1601.15C1263.37 1601.15 1258.48 1614.96 1270.27 1614.96C1282.06 1614.96 1278.9 1601.15 1287.53 1601.15" stroke="#31EFB8" stroke-width="3.78108"/>
<path d="M1159.37 1454.99C1159.27 1454.02 1158.86 1453.26 1158.13 1452.72C1157.4 1452.19 1156.4 1451.92 1155.15 1451.92C1154.3 1451.92 1153.58 1452.04 1153 1452.28C1152.41 1452.51 1151.96 1452.84 1151.65 1453.25C1151.34 1453.67 1151.19 1454.15 1151.19 1454.68C1151.17 1455.12 1151.27 1455.5 1151.47 1455.83C1151.68 1456.16 1151.96 1456.45 1152.32 1456.69C1152.68 1456.92 1153.1 1457.12 1153.57 1457.3C1154.05 1457.47 1154.55 1457.61 1155.09 1457.73L1157.31 1458.26C1158.38 1458.51 1159.37 1458.83 1160.27 1459.23C1161.17 1459.63 1161.95 1460.12 1162.61 1460.71C1163.27 1461.3 1163.77 1461.99 1164.14 1462.78C1164.51 1463.58 1164.69 1464.49 1164.7 1465.51C1164.69 1467.02 1164.31 1468.33 1163.55 1469.44C1162.79 1470.54 1161.7 1471.4 1160.27 1472.01C1158.85 1472.61 1157.14 1472.91 1155.13 1472.91C1153.14 1472.91 1151.4 1472.6 1149.93 1471.99C1148.46 1471.38 1147.31 1470.48 1146.48 1469.28C1145.66 1468.08 1145.23 1466.59 1145.19 1464.82H1150.24C1150.3 1465.64 1150.53 1466.33 1150.95 1466.89C1151.37 1467.43 1151.94 1467.85 1152.65 1468.13C1153.36 1468.4 1154.17 1468.54 1155.07 1468.54C1155.95 1468.54 1156.72 1468.41 1157.37 1468.15C1158.03 1467.89 1158.54 1467.54 1158.9 1467.08C1159.26 1466.62 1159.44 1466.1 1159.44 1465.5C1159.44 1464.95 1159.27 1464.48 1158.95 1464.11C1158.62 1463.73 1158.15 1463.41 1157.52 1463.14C1156.91 1462.88 1156.15 1462.64 1155.25 1462.42L1152.56 1461.74C1150.48 1461.24 1148.84 1460.45 1147.64 1459.37C1146.43 1458.3 1145.84 1456.85 1145.84 1455.02C1145.84 1453.53 1146.23 1452.23 1147.04 1451.11C1147.85 1450 1148.96 1449.12 1150.37 1448.5C1151.78 1447.87 1153.39 1447.56 1155.19 1447.56C1157.02 1447.56 1158.62 1447.87 1159.98 1448.5C1161.35 1449.12 1162.42 1450 1163.18 1451.11C1163.95 1452.23 1164.34 1453.52 1164.37 1454.99H1159.37Z" fill="white"/>
<path d="M1159.37 1454.99L1151.85 1455.73L1152.52 1462.55H1159.37V1454.99ZM1153 1452.28L1155.79 1459.3L1155.83 1459.29L1155.87 1459.27L1153 1452.28ZM1151.65 1453.25L1145.6 1448.72L1145.57 1448.76L1145.55 1448.8L1151.65 1453.25ZM1151.19 1454.68L1158.74 1454.95L1158.75 1454.81V1454.68H1151.19ZM1151.47 1455.83L1145.01 1459.77L1145.05 1459.82L1145.08 1459.88L1151.47 1455.83ZM1152.32 1456.69L1148.13 1462.98L1148.18 1463.01L1148.23 1463.04L1152.32 1456.69ZM1153.57 1457.3L1150.93 1464.38L1150.99 1464.4L1151.04 1464.42L1153.57 1457.3ZM1155.09 1457.73L1156.85 1450.38L1156.8 1450.37L1156.74 1450.36L1155.09 1457.73ZM1157.31 1458.26L1155.55 1465.62L1155.6 1465.63L1155.66 1465.64L1157.31 1458.26ZM1160.27 1459.23L1157.19 1466.13L1157.19 1466.13L1160.27 1459.23ZM1162.61 1460.71L1167.63 1455.06L1167.63 1455.06L1162.61 1460.71ZM1164.14 1462.78L1157.26 1465.91L1157.27 1465.94L1157.28 1465.97L1164.14 1462.78ZM1164.7 1465.51L1172.26 1465.55L1172.26 1465.5L1172.26 1465.46L1164.7 1465.51ZM1163.55 1469.44L1157.32 1465.15L1157.31 1465.16L1163.55 1469.44ZM1160.27 1472.01L1163.22 1478.96L1163.23 1478.96L1163.24 1478.96L1160.27 1472.01ZM1149.93 1471.99L1147.03 1478.97L1147.03 1478.98L1147.04 1478.98L1149.93 1471.99ZM1146.48 1469.28L1140.23 1473.53L1140.25 1473.56L1140.26 1473.58L1146.48 1469.28ZM1145.19 1464.82V1457.26H1137.46L1137.64 1464.99L1145.19 1464.82ZM1150.24 1464.82L1157.78 1464.3L1157.3 1457.26H1150.24V1464.82ZM1150.95 1466.89L1144.91 1471.44L1144.95 1471.49L1144.99 1471.53L1150.95 1466.89ZM1152.65 1468.13L1149.85 1475.15L1149.9 1475.17L1149.95 1475.19L1152.65 1468.13ZM1157.37 1468.15L1154.62 1461.11L1154.61 1461.12L1154.59 1461.12L1157.37 1468.15ZM1158.9 1467.08L1164.83 1471.76L1164.83 1471.76L1158.9 1467.08ZM1158.95 1464.11L1153.19 1469L1153.22 1469.04L1153.25 1469.07L1158.95 1464.11ZM1157.52 1463.14L1154.55 1470.09L1154.56 1470.1L1154.58 1470.1L1157.52 1463.14ZM1155.25 1462.42L1153.41 1469.75L1153.44 1469.76L1153.48 1469.77L1155.25 1462.42ZM1152.56 1461.74L1154.4 1454.41L1154.38 1454.41L1154.35 1454.4L1152.56 1461.74ZM1147.64 1459.37L1142.6 1465.01L1142.6 1465.01L1147.64 1459.37ZM1145.84 1455.02L1153.4 1455.06L1153.4 1455.02L1153.4 1454.98L1145.84 1455.02ZM1147.04 1451.11L1140.92 1446.67L1140.91 1446.68L1140.9 1446.7L1147.04 1451.11ZM1159.98 1448.5L1156.83 1455.37L1156.84 1455.37L1156.84 1455.37L1159.98 1448.5ZM1163.18 1451.11L1156.94 1455.38L1156.94 1455.38L1163.18 1451.11ZM1164.37 1454.99V1462.55H1172.05L1171.92 1454.86L1164.37 1454.99ZM1166.89 1454.24C1166.6 1451.32 1165.21 1448.55 1162.61 1446.64L1153.65 1458.81C1153.17 1458.46 1152.71 1457.97 1152.36 1457.33C1152.01 1456.7 1151.88 1456.13 1151.85 1455.73L1166.89 1454.24ZM1162.61 1446.64C1160.17 1444.84 1157.42 1444.36 1155.15 1444.36V1459.48C1155.39 1459.48 1154.63 1459.53 1153.65 1458.81L1162.61 1446.64ZM1155.15 1444.36C1153.63 1444.36 1151.88 1444.57 1150.12 1445.29L1155.87 1459.27C1155.57 1459.39 1155.34 1459.44 1155.22 1459.46C1155.11 1459.48 1155.08 1459.48 1155.15 1459.48V1444.36ZM1150.21 1445.25C1148.6 1445.89 1146.91 1446.98 1145.6 1448.72L1157.69 1457.79C1157.01 1458.7 1156.22 1459.13 1155.79 1459.3L1150.21 1445.25ZM1145.55 1448.8C1144.27 1450.54 1143.63 1452.59 1143.63 1454.68H1158.75C1158.75 1455.71 1158.42 1456.8 1157.75 1457.71L1145.55 1448.8ZM1143.64 1454.4C1143.57 1456.1 1143.93 1458 1145.01 1459.77L1157.92 1451.9C1158.6 1453.01 1158.77 1454.13 1158.74 1454.95L1143.64 1454.4ZM1145.08 1459.88C1145.92 1461.2 1146.99 1462.22 1148.13 1462.98L1156.52 1450.4C1156.93 1450.68 1157.43 1451.12 1157.85 1451.78L1145.08 1459.88ZM1148.23 1463.04C1149.12 1463.61 1150.04 1464.05 1150.93 1464.38L1156.22 1450.22C1156.16 1450.2 1156.25 1450.23 1156.42 1450.33L1148.23 1463.04ZM1151.04 1464.42C1151.83 1464.7 1152.63 1464.93 1153.44 1465.11L1156.74 1450.36C1156.48 1450.3 1156.27 1450.24 1156.11 1450.18L1151.04 1464.42ZM1153.33 1465.09L1155.55 1465.62L1159.07 1450.91L1156.85 1450.38L1153.33 1465.09ZM1155.66 1465.64C1156.3 1465.78 1156.8 1465.96 1157.19 1466.13L1163.35 1452.33C1161.94 1451.7 1160.47 1451.23 1158.96 1450.89L1155.66 1465.64ZM1157.19 1466.13C1157.46 1466.25 1157.57 1466.34 1157.58 1466.35L1167.63 1455.06C1166.33 1453.9 1164.88 1453.01 1163.35 1452.33L1157.19 1466.13ZM1157.58 1466.35C1157.53 1466.31 1157.47 1466.24 1157.4 1466.16C1157.34 1466.07 1157.29 1465.98 1157.26 1465.91L1171.02 1459.65C1170.22 1457.89 1169.07 1456.34 1167.63 1455.06L1157.58 1466.35ZM1157.28 1465.97C1157.21 1465.8 1157.17 1465.67 1157.15 1465.59C1157.14 1465.52 1157.14 1465.5 1157.14 1465.57L1172.26 1465.46C1172.25 1463.53 1171.89 1461.52 1170.99 1459.6L1157.28 1465.97ZM1157.14 1465.47C1157.14 1465.59 1157.13 1465.59 1157.16 1465.49C1157.17 1465.45 1157.19 1465.39 1157.22 1465.33C1157.25 1465.27 1157.28 1465.21 1157.32 1465.15L1169.77 1473.73C1171.5 1471.22 1172.25 1468.39 1172.26 1465.55L1157.14 1465.47ZM1157.31 1465.16C1157.35 1465.11 1157.39 1465.07 1157.42 1465.03C1157.46 1464.99 1157.49 1464.97 1157.5 1464.96C1157.53 1464.93 1157.48 1464.98 1157.3 1465.05L1163.24 1478.96C1165.77 1477.88 1168.09 1476.18 1169.78 1473.72L1157.31 1465.16ZM1157.32 1465.05C1157.07 1465.15 1156.41 1465.35 1155.13 1465.35V1480.47C1157.86 1480.47 1160.63 1480.06 1163.22 1478.96L1157.32 1465.05ZM1155.13 1465.35C1153.89 1465.35 1153.18 1465.16 1152.81 1465.01L1147.04 1478.98C1149.63 1480.05 1152.38 1480.47 1155.13 1480.47V1465.35ZM1152.82 1465.01C1152.75 1464.98 1152.7 1464.95 1152.67 1464.94C1152.64 1464.92 1152.63 1464.91 1152.64 1464.92C1152.64 1464.92 1152.65 1464.93 1152.67 1464.95C1152.68 1464.96 1152.69 1464.98 1152.7 1464.99L1140.26 1473.58C1141.99 1476.08 1144.35 1477.86 1147.03 1478.97L1152.82 1465.01ZM1152.73 1465.03C1152.8 1465.13 1152.82 1465.2 1152.81 1465.17C1152.8 1465.13 1152.76 1464.97 1152.75 1464.64L1137.64 1464.99C1137.7 1467.9 1138.43 1470.88 1140.23 1473.53L1152.73 1465.03ZM1145.19 1472.37H1150.24V1457.26H1145.19V1472.37ZM1142.7 1465.33C1142.83 1467.33 1143.45 1469.5 1144.91 1471.44L1156.99 1462.34C1157.61 1463.17 1157.76 1463.96 1157.78 1464.3L1142.7 1465.33ZM1144.99 1471.53C1146.32 1473.24 1148.03 1474.42 1149.85 1475.15L1155.44 1461.1C1155.86 1461.27 1156.43 1461.62 1156.91 1462.24L1144.99 1471.53ZM1149.95 1475.19C1151.66 1475.84 1153.41 1476.1 1155.07 1476.1V1460.98C1154.93 1460.98 1155.06 1460.96 1155.34 1461.07L1149.95 1475.19ZM1155.07 1476.1C1156.66 1476.1 1158.41 1475.87 1160.15 1475.18L1154.59 1461.12C1155.02 1460.95 1155.24 1460.98 1155.07 1460.98V1476.1ZM1160.12 1475.19C1161.76 1474.55 1163.48 1473.48 1164.83 1471.76L1152.97 1462.4C1153.6 1461.6 1154.29 1461.24 1154.62 1461.11L1160.12 1475.19ZM1164.83 1471.76C1166.27 1469.94 1167 1467.76 1167 1465.5H1151.88C1151.88 1465.02 1151.96 1464.47 1152.16 1463.89C1152.36 1463.3 1152.64 1462.8 1152.97 1462.4L1164.83 1471.76ZM1167 1465.5C1167 1463.33 1166.3 1461.04 1164.64 1459.14L1153.25 1469.07C1152.8 1468.55 1152.43 1467.94 1152.19 1467.26C1151.95 1466.59 1151.88 1465.98 1151.88 1465.5H1167ZM1164.7 1459.21C1163.39 1457.66 1161.8 1456.74 1160.47 1456.18L1154.58 1470.1C1154.5 1470.07 1153.86 1469.79 1153.19 1469L1164.7 1459.21ZM1160.5 1456.19C1159.38 1455.71 1158.19 1455.35 1157.02 1455.07L1153.48 1469.77C1154.11 1469.92 1154.43 1470.04 1154.55 1470.09L1160.5 1456.19ZM1157.09 1455.09L1154.4 1454.41L1150.72 1469.08L1153.41 1469.75L1157.09 1455.09ZM1154.35 1454.4C1153.1 1454.1 1152.7 1453.76 1152.67 1453.74L1142.6 1465.01C1144.98 1467.14 1147.87 1468.38 1150.78 1469.09L1154.35 1454.4ZM1152.67 1453.74C1152.89 1453.93 1153.12 1454.23 1153.27 1454.59C1153.41 1454.93 1153.4 1455.13 1153.4 1455.06L1138.28 1454.99C1138.27 1458.67 1139.57 1462.3 1142.6 1465.01L1152.67 1453.74ZM1153.4 1454.98C1153.4 1454.93 1153.41 1454.99 1153.37 1455.13C1153.32 1455.28 1153.25 1455.42 1153.17 1455.53L1140.9 1446.7C1139.08 1449.22 1138.27 1452.12 1138.28 1455.07L1153.4 1454.98ZM1153.15 1455.55C1153.13 1455.58 1153.12 1455.58 1153.14 1455.57C1153.16 1455.55 1153.24 1455.49 1153.43 1455.41L1147.31 1441.59C1144.83 1442.69 1142.61 1444.35 1140.92 1446.67L1153.15 1455.55ZM1153.43 1455.41C1153.74 1455.27 1154.27 1455.12 1155.19 1455.12V1440C1152.51 1440 1149.83 1440.47 1147.31 1441.59L1153.43 1455.41ZM1155.19 1455.12C1156.16 1455.12 1156.65 1455.28 1156.83 1455.37L1163.13 1441.63C1160.59 1440.46 1157.87 1440 1155.19 1440V1455.12ZM1156.84 1455.37C1156.92 1455.41 1156.97 1455.44 1157 1455.46C1157.03 1455.47 1157.04 1455.48 1157.03 1455.48C1157.03 1455.47 1157.02 1455.46 1157 1455.44C1156.98 1455.42 1156.96 1455.4 1156.94 1455.38L1169.43 1446.85C1167.8 1444.46 1165.59 1442.75 1163.12 1441.62L1156.84 1455.37ZM1156.94 1455.38C1156.92 1455.34 1156.9 1455.3 1156.87 1455.25C1156.85 1455.2 1156.83 1455.16 1156.82 1455.12C1156.8 1455.03 1156.81 1455.02 1156.81 1455.11L1171.92 1454.86C1171.88 1452.05 1171.1 1449.29 1169.43 1446.85L1156.94 1455.38ZM1164.37 1447.43H1159.37V1462.55H1164.37V1447.43Z" fill="black"/>
<path d="M1236.4 1418.51L1242.36 1437.25H1242.59L1248.57 1418.51H1254.35L1245.84 1443.17H1239.12L1230.61 1418.51H1236.4Z" fill="white"/>
<path d="M1236.4 1418.51L1243.61 1416.22L1241.93 1410.95H1236.4V1418.51ZM1242.36 1437.25L1235.16 1439.54L1236.84 1444.81H1242.36V1437.25ZM1242.59 1437.25V1444.81H1248.12L1249.79 1439.54L1242.59 1437.25ZM1248.57 1418.51V1410.95H1243.04L1241.36 1416.21L1248.57 1418.51ZM1254.35 1418.51L1261.49 1420.97L1264.95 1410.95H1254.35V1418.51ZM1245.84 1443.17V1450.73H1251.23L1252.99 1445.64L1245.84 1443.17ZM1239.12 1443.17L1231.98 1445.64L1233.74 1450.73H1239.12V1443.17ZM1230.61 1418.51V1410.95H1220L1223.47 1420.98L1230.61 1418.51ZM1229.2 1420.8L1235.16 1439.54L1249.57 1434.96L1243.61 1416.22L1229.2 1420.8ZM1242.36 1444.81H1242.59V1429.69H1242.36V1444.81ZM1249.79 1439.54L1255.77 1420.8L1241.36 1416.21L1235.39 1434.95L1249.79 1439.54ZM1248.57 1426.07H1254.35V1410.95H1248.57V1426.07ZM1247.2 1416.05L1238.7 1440.71L1252.99 1445.64L1261.49 1420.97L1247.2 1416.05ZM1245.84 1435.61H1239.12V1450.73H1245.84V1435.61ZM1246.27 1440.71L1237.75 1416.04L1223.47 1420.98L1231.98 1445.64L1246.27 1440.71ZM1230.61 1426.07H1236.4V1410.95H1230.61V1426.07Z" fill="black"/>
<path d="M1350.52 1400.19C1350.36 1399.61 1350.12 1399.09 1349.81 1398.64C1349.51 1398.18 1349.14 1397.79 1348.69 1397.48C1348.26 1397.16 1347.76 1396.92 1347.2 1396.75C1346.65 1396.58 1346.03 1396.49 1345.36 1396.49C1344.1 1396.49 1342.99 1396.81 1342.03 1397.43C1341.09 1398.06 1340.35 1398.97 1339.82 1400.17C1339.29 1401.36 1339.02 1402.81 1339.02 1404.53C1339.02 1406.24 1339.28 1407.71 1339.81 1408.91C1340.33 1410.11 1341.07 1411.03 1342.02 1411.67C1342.98 1412.29 1344.11 1412.61 1345.41 1412.61C1346.59 1412.61 1347.59 1412.4 1348.43 1411.98C1349.27 1411.56 1349.91 1410.96 1350.36 1410.19C1350.81 1409.42 1351.03 1408.5 1351.03 1407.45L1352.09 1407.61H1345.73V1403.68H1356.05V1406.79C1356.05 1408.96 1355.59 1410.82 1354.68 1412.38C1353.76 1413.93 1352.5 1415.12 1350.9 1415.97C1349.29 1416.8 1347.45 1417.22 1345.38 1417.22C1343.07 1417.22 1341.04 1416.71 1339.29 1415.69C1337.54 1414.66 1336.17 1413.21 1335.19 1411.32C1334.22 1409.42 1333.74 1407.18 1333.74 1404.57C1333.74 1402.58 1334.03 1400.79 1334.6 1399.23C1335.19 1397.65 1336.01 1396.32 1337.06 1395.23C1338.11 1394.14 1339.34 1393.31 1340.73 1392.74C1342.13 1392.17 1343.64 1391.88 1345.27 1391.88C1346.67 1391.88 1347.97 1392.09 1349.18 1392.5C1350.38 1392.9 1351.45 1393.47 1352.38 1394.21C1353.32 1394.94 1354.09 1395.82 1354.68 1396.84C1355.27 1397.86 1355.65 1398.97 1355.82 1400.19H1350.52Z" fill="white"/>
<path d="M1350.52 1400.19L1343.26 1402.28L1344.83 1407.75H1350.52V1400.19ZM1349.81 1398.64L1343.52 1402.83L1343.54 1402.86L1343.56 1402.88L1349.81 1398.64ZM1348.69 1397.48L1344.19 1403.56L1344.26 1403.6L1344.32 1403.65L1348.69 1397.48ZM1347.2 1396.75L1345 1403.98L1345.01 1403.98L1345.03 1403.99L1347.2 1396.75ZM1342.03 1397.43L1337.89 1391.11L1337.88 1391.12L1337.87 1391.13L1342.03 1397.43ZM1339.82 1400.17L1346.72 1403.25L1346.73 1403.24L1346.73 1403.23L1339.82 1400.17ZM1342.02 1411.67L1337.84 1417.97L1337.86 1417.98L1337.88 1417.99L1342.02 1411.67ZM1348.43 1411.98L1351.81 1418.74L1351.82 1418.74L1351.83 1418.73L1348.43 1411.98ZM1350.36 1410.19L1343.83 1406.38L1343.81 1406.4L1343.8 1406.43L1350.36 1410.19ZM1351.03 1407.45L1352.13 1399.98L1343.47 1398.7V1407.45H1351.03ZM1352.09 1407.61V1415.17L1353.19 1400.13L1352.09 1407.61ZM1345.73 1407.61H1338.17V1415.17H1345.73V1407.61ZM1345.73 1403.68V1396.13H1338.17V1403.68H1345.73ZM1356.05 1403.68H1363.61V1396.13H1356.05V1403.68ZM1354.68 1412.38L1361.19 1416.22L1361.19 1416.22L1361.2 1416.21L1354.68 1412.38ZM1350.9 1415.97L1354.38 1422.67L1354.4 1422.67L1354.41 1422.66L1350.9 1415.97ZM1339.29 1415.69L1335.46 1422.21L1335.47 1422.21L1335.48 1422.22L1339.29 1415.69ZM1335.19 1411.32L1328.47 1414.77L1328.48 1414.78L1328.49 1414.8L1335.19 1411.32ZM1334.6 1399.23L1327.52 1396.59L1327.52 1396.6L1327.51 1396.61L1334.6 1399.23ZM1337.06 1395.23L1342.5 1400.47L1342.5 1400.47L1337.06 1395.23ZM1340.73 1392.74L1337.88 1385.74L1337.88 1385.74L1340.73 1392.74ZM1349.18 1392.5L1346.74 1399.65L1346.76 1399.66L1346.79 1399.67L1349.18 1392.5ZM1352.38 1394.21L1347.68 1400.13L1347.69 1400.14L1347.71 1400.15L1352.38 1394.21ZM1354.68 1396.84L1348.15 1400.65L1348.15 1400.66L1348.16 1400.67L1354.68 1396.84ZM1355.82 1400.19V1407.75H1364.5L1363.31 1399.16L1355.82 1400.19ZM1357.79 1398.1C1357.43 1396.84 1356.87 1395.58 1356.07 1394.39L1343.56 1402.88C1343.37 1402.6 1343.29 1402.37 1343.26 1402.28L1357.79 1398.1ZM1356.1 1394.45C1355.29 1393.23 1354.27 1392.17 1353.07 1391.32L1344.32 1403.65C1344 1403.42 1343.72 1403.13 1343.52 1402.83L1356.1 1394.45ZM1353.19 1391.41C1352 1390.52 1350.7 1389.91 1349.37 1389.51L1345.03 1403.99C1344.83 1403.93 1344.52 1403.8 1344.19 1403.56L1353.19 1391.41ZM1349.4 1389.52C1348.03 1389.1 1346.66 1388.94 1345.36 1388.94V1404.05C1345.41 1404.05 1345.27 1404.06 1345 1403.98L1349.4 1389.52ZM1345.36 1388.94C1342.78 1388.94 1340.2 1389.6 1337.89 1391.11L1346.18 1403.76C1346.01 1403.87 1345.82 1403.95 1345.64 1404C1345.46 1404.05 1345.36 1404.05 1345.36 1404.05V1388.94ZM1337.87 1391.13C1335.54 1392.67 1333.93 1394.79 1332.91 1397.11L1346.73 1403.23C1346.75 1403.17 1346.74 1403.23 1346.64 1403.35C1346.54 1403.47 1346.39 1403.61 1346.2 1403.74L1337.87 1391.13ZM1332.92 1397.09C1331.84 1399.5 1331.47 1402.07 1331.47 1404.53H1346.58C1346.58 1403.55 1346.74 1403.21 1346.72 1403.25L1332.92 1397.09ZM1331.47 1404.53C1331.47 1406.97 1331.83 1409.52 1332.87 1411.92L1346.74 1405.9C1346.74 1405.89 1346.58 1405.52 1346.58 1404.53H1331.47ZM1332.87 1411.92C1333.89 1414.26 1335.5 1416.41 1337.84 1417.97L1346.2 1405.37C1346.39 1405.5 1346.54 1405.64 1346.64 1405.77C1346.74 1405.89 1346.76 1405.96 1346.74 1405.9L1332.87 1411.92ZM1337.88 1417.99C1340.23 1419.53 1342.84 1420.17 1345.41 1420.17V1405.05C1345.36 1405.05 1345.44 1405.04 1345.61 1405.09C1345.78 1405.14 1345.97 1405.22 1346.17 1405.35L1337.88 1417.99ZM1345.41 1420.17C1347.46 1420.17 1349.68 1419.8 1351.81 1418.74L1345.05 1405.22C1345.5 1404.99 1345.71 1405.05 1345.41 1405.05V1420.17ZM1351.83 1418.73C1353.91 1417.68 1355.69 1416.08 1356.91 1413.94L1343.8 1406.43C1343.95 1406.16 1344.15 1405.91 1344.39 1405.68C1344.63 1405.46 1344.86 1405.32 1345.02 1405.23L1351.83 1418.73ZM1356.88 1414C1358.12 1411.88 1358.59 1409.6 1358.59 1407.45H1343.47C1343.47 1407.41 1343.49 1406.96 1343.83 1406.38L1356.88 1414ZM1349.93 1414.93L1350.99 1415.09L1353.19 1400.13L1352.13 1399.98L1349.93 1414.93ZM1352.09 1400.05H1345.73V1415.17H1352.09V1400.05ZM1353.29 1407.61V1403.68H1338.17V1407.61H1353.29ZM1345.73 1411.24H1356.05V1396.13H1345.73V1411.24ZM1348.49 1403.68V1406.79H1363.61V1403.68H1348.49ZM1348.49 1406.79C1348.49 1407.88 1348.27 1408.36 1348.16 1408.55L1361.2 1416.21C1362.92 1413.28 1363.61 1410.04 1363.61 1406.79H1348.49ZM1348.17 1408.53C1347.98 1408.86 1347.76 1409.08 1347.38 1409.27L1354.41 1422.66C1357.25 1421.17 1359.55 1418.99 1361.19 1416.22L1348.17 1408.53ZM1347.41 1409.26C1347.03 1409.46 1346.42 1409.66 1345.38 1409.66V1424.78C1348.49 1424.78 1351.56 1424.14 1354.38 1422.67L1347.41 1409.26ZM1345.38 1409.66C1344.21 1409.66 1343.53 1409.42 1343.09 1409.16L1335.48 1422.22C1338.54 1424 1341.93 1424.78 1345.38 1424.78V1409.66ZM1343.12 1409.17C1342.65 1408.9 1342.26 1408.52 1341.9 1407.84L1328.49 1414.8C1330.09 1417.89 1332.42 1420.43 1335.46 1422.21L1343.12 1409.17ZM1341.92 1407.87C1341.6 1407.25 1341.3 1406.24 1341.3 1404.57H1326.18C1326.18 1408.11 1326.84 1411.59 1328.47 1414.77L1341.92 1407.87ZM1341.3 1404.57C1341.3 1403.3 1341.48 1402.43 1341.69 1401.85L1327.51 1396.61C1326.57 1399.16 1326.18 1401.85 1326.18 1404.57H1341.3ZM1341.69 1401.87C1341.95 1401.16 1342.25 1400.74 1342.5 1400.47L1331.62 1389.99C1329.77 1391.9 1328.43 1394.15 1327.52 1396.59L1341.69 1401.87ZM1342.5 1400.47C1342.83 1400.14 1343.17 1399.91 1343.59 1399.74L1337.88 1385.74C1335.5 1386.71 1333.4 1388.14 1331.62 1389.99L1342.5 1400.47ZM1343.59 1399.74C1344.01 1399.56 1344.54 1399.44 1345.27 1399.44V1384.32C1342.74 1384.32 1340.25 1384.77 1337.88 1385.74L1343.59 1399.74ZM1345.27 1399.44C1345.92 1399.44 1346.39 1399.53 1346.74 1399.65L1351.61 1385.34C1349.55 1384.64 1347.42 1384.32 1345.27 1384.32V1399.44ZM1346.79 1399.67C1347.21 1399.81 1347.49 1399.97 1347.68 1400.13L1357.08 1388.28C1355.41 1386.96 1353.55 1385.99 1351.57 1385.33L1346.79 1399.67ZM1347.71 1400.15C1347.91 1400.31 1348.04 1400.46 1348.15 1400.65L1361.21 1393.04C1360.13 1391.19 1358.73 1389.58 1357.05 1388.26L1347.71 1400.15ZM1348.16 1400.67C1348.23 1400.78 1348.3 1400.94 1348.34 1401.23L1363.31 1399.16C1363.01 1397 1362.32 1394.93 1361.2 1393.02L1348.16 1400.67ZM1355.82 1392.63H1350.52V1407.75H1355.82V1392.63Z" fill="black"/>
<path d="M782.51 183C781.021 182.997 779.546 183.287 778.17 183.856C776.794 184.424 775.544 185.258 774.491 186.311C773.439 187.364 772.604 188.615 772.037 189.991C771.469 191.367 771.179 192.842 771.183 194.331V266.339C771.179 267.827 771.47 269.302 772.038 270.677C772.606 272.053 773.44 273.303 774.492 274.356C775.545 275.409 776.795 276.243 778.171 276.811C779.547 277.379 781.021 277.669 782.51 277.666H806.272L798.01 306.179L833.858 277.666H866.26C867.749 277.67 869.224 277.38 870.6 276.812C871.977 276.244 873.227 275.41 874.28 274.357C875.333 273.305 876.168 272.054 876.736 270.678C877.304 269.302 877.595 267.827 877.591 266.339V194.331C877.595 192.842 877.305 191.367 876.737 189.99C876.169 188.614 875.334 187.363 874.281 186.31C873.228 185.257 871.978 184.422 870.601 183.854C869.225 183.286 867.749 182.996 866.26 183H782.51Z" fill="white"/>
<path d="M821.983 256.334C821.265 255.881 798.486 233.033 797.635 231.919C795.912 229.639 794.612 225.648 794.616 222.655C794.616 221.196 795.277 218.225 795.916 216.77C797.112 214.028 799.081 211.694 801.582 210.051C804.082 208.409 807.007 207.53 809.998 207.522C814.22 207.533 817.95 209.2 821.424 212.635C822.202 213.406 822.898 214.034 822.973 214.034C823.045 214.034 823.918 213.278 824.909 212.352C827.781 209.668 830.098 208.459 833.564 207.816C839.361 206.747 845.624 209.521 848.988 214.657C850.432 216.861 851.52 220.508 851.52 223.127C851.52 225.456 850.538 228.759 849.12 231.189C848.648 231.998 845.163 235.626 836.606 244.228C830.083 250.786 824.508 256.274 824.213 256.429C823.868 256.618 823.478 256.709 823.085 256.693C822.692 256.676 822.311 256.552 821.983 256.334V256.334ZM834.161 240.177C839.925 234.394 844.842 229.303 845.186 228.755C847.314 225.369 847.272 220.467 845.091 217.159C842.321 212.964 836.776 211.15 832.256 212.949C830.321 213.724 829.599 214.264 827.018 216.895C824.599 219.359 824.039 219.767 823.068 219.767C822.123 219.767 821.775 219.51 819.118 216.887C815.426 213.244 813.468 212.257 809.945 212.257C806.971 212.257 804.541 213.225 802.511 215.221C800.47 217.224 799.571 219.268 799.412 222.266C799.268 225.013 799.854 226.979 801.506 229.284C801.793 229.681 806.752 234.734 812.531 240.509C821.59 249.569 823.083 250.986 823.397 250.812C823.597 250.703 828.442 245.918 834.165 240.177H834.161Z" fill="#FAB5F5" stroke="#FAB5F5" stroke-width="1.13386"/>
</svg>
